<mxfile host="app.diagrams.net" modified="2024-06-06T08:38:02.842Z" agent="Mozilla/5.0 (Windows NT 10.0; Win64; x64) AppleWebKit/537.36 (KHTML, like Gecko) Chrome/123.0.0.0 Safari/537.36 OPR/109.0.0.0" etag="_qNzDn55dZKbTA_ZagdA" version="24.2.5" type="device">
  <diagram name="PÃ¡gina-1" id="J1kE1jurr3mjiwWZRuXu">
    <mxGraphModel dx="1009" dy="573" grid="1" gridSize="10" guides="1" tooltips="1" connect="1" arrows="1" fold="1" page="1" pageScale="1" pageWidth="827" pageHeight="1169" math="0" shadow="0">
      <root>
        <mxCell id="0" />
        <mxCell id="1" parent="0" />
        <mxCell id="VWZkrmGNgomc8ggMUIlt-5" value="News" style="rounded=0;whiteSpace=wrap;html=1;" parent="1" vertex="1">
          <mxGeometry x="340" y="70" width="156" height="60" as="geometry" />
        </mxCell>
        <mxCell id="VWZkrmGNgomc8ggMUIlt-6" value="&lt;div&gt;PK ID_News&lt;/div&gt;&lt;div&gt;Title&lt;/div&gt;&lt;div&gt;Content&lt;/div&gt;&lt;div&gt;Publication Date&lt;/div&gt;&lt;div&gt;FK1 User&lt;br&gt;&lt;/div&gt;&lt;div&gt;FK2 Category&lt;br&gt;&lt;/div&gt;&lt;div&gt;&lt;br&gt;&lt;/div&gt;" style="rounded=0;whiteSpace=wrap;html=1;" parent="1" vertex="1">
          <mxGeometry x="340" y="130" width="156" height="160" as="geometry" />
        </mxCell>
        <mxCell id="VWZkrmGNgomc8ggMUIlt-9" value="Category" style="rounded=0;whiteSpace=wrap;html=1;" parent="1" vertex="1">
          <mxGeometry x="620" y="70" width="140" height="60" as="geometry" />
        </mxCell>
        <mxCell id="VWZkrmGNgomc8ggMUIlt-10" value="&lt;div&gt;PK ID_Category&lt;/div&gt;&lt;div&gt;Name&lt;/div&gt;&lt;div&gt;Description&lt;br&gt;&lt;/div&gt;" style="rounded=0;whiteSpace=wrap;html=1;" parent="1" vertex="1">
          <mxGeometry x="620" y="130" width="140" height="70" as="geometry" />
        </mxCell>
        <mxCell id="VWZkrmGNgomc8ggMUIlt-11" value="User" style="rounded=0;whiteSpace=wrap;html=1;" parent="1" vertex="1">
          <mxGeometry x="90" y="110" width="140" height="60" as="geometry" />
        </mxCell>
        <mxCell id="VWZkrmGNgomc8ggMUIlt-12" value="&lt;div&gt;PK ID_User&lt;/div&gt;&lt;div&gt;Email&lt;/div&gt;&lt;div&gt;Password&lt;/div&gt;&lt;div&gt;Date of Register&lt;br&gt;&lt;/div&gt;&lt;div&gt;Admin&lt;/div&gt;" style="rounded=0;whiteSpace=wrap;html=1;" parent="1" vertex="1">
          <mxGeometry x="90" y="170" width="140" height="100" as="geometry" />
        </mxCell>
        <mxCell id="VWZkrmGNgomc8ggMUIlt-14" value="" style="endArrow=none;html=1;rounded=0;" parent="1" edge="1">
          <mxGeometry width="50" height="50" relative="1" as="geometry">
            <mxPoint x="510" y="250" as="sourcePoint" />
            <mxPoint x="510" y="230" as="targetPoint" />
            <Array as="points" />
          </mxGeometry>
        </mxCell>
        <mxCell id="VWZkrmGNgomc8ggMUIlt-17" value="" style="endArrow=none;html=1;rounded=0;" parent="1" edge="1">
          <mxGeometry width="50" height="50" relative="1" as="geometry">
            <mxPoint x="520" y="250" as="sourcePoint" />
            <mxPoint x="520" y="230" as="targetPoint" />
            <Array as="points">
              <mxPoint x="520" y="230" />
            </Array>
          </mxGeometry>
        </mxCell>
        <mxCell id="VWZkrmGNgomc8ggMUIlt-19" value="" style="endArrow=none;html=1;rounded=0;exitX=1.025;exitY=0.677;exitDx=0;exitDy=0;exitPerimeter=0;" parent="1" source="VWZkrmGNgomc8ggMUIlt-6" edge="1">
          <mxGeometry width="50" height="50" relative="1" as="geometry">
            <mxPoint x="500" y="238" as="sourcePoint" />
            <mxPoint x="560" y="240" as="targetPoint" />
            <Array as="points" />
          </mxGeometry>
        </mxCell>
        <mxCell id="VWZkrmGNgomc8ggMUIlt-18" value="" style="ellipse;whiteSpace=wrap;html=1;aspect=fixed;" parent="1" vertex="1">
          <mxGeometry x="600" y="140" width="20" height="20" as="geometry" />
        </mxCell>
        <mxCell id="VWZkrmGNgomc8ggMUIlt-21" value="" style="endArrow=none;html=1;rounded=0;entryX=1;entryY=0.5;entryDx=0;entryDy=0;" parent="1" target="VWZkrmGNgomc8ggMUIlt-18" edge="1">
          <mxGeometry width="50" height="50" relative="1" as="geometry">
            <mxPoint x="560" y="240" as="sourcePoint" />
            <mxPoint x="580" y="130" as="targetPoint" />
            <Array as="points">
              <mxPoint x="560" y="150" />
            </Array>
          </mxGeometry>
        </mxCell>
        <mxCell id="VWZkrmGNgomc8ggMUIlt-23" value="" style="ellipse;whiteSpace=wrap;html=1;aspect=fixed;" parent="1" vertex="1">
          <mxGeometry x="310" y="220" width="20" height="20" as="geometry" />
        </mxCell>
        <mxCell id="AJxAClDKUVzNGmlDarn7-4" value="" style="endArrow=none;html=1;rounded=0;exitX=1;exitY=0.25;exitDx=0;exitDy=0;" edge="1" parent="1" source="VWZkrmGNgomc8ggMUIlt-12" target="VWZkrmGNgomc8ggMUIlt-23">
          <mxGeometry width="50" height="50" relative="1" as="geometry">
            <mxPoint x="250" y="210" as="sourcePoint" />
            <mxPoint x="300" y="160" as="targetPoint" />
          </mxGeometry>
        </mxCell>
        <mxCell id="AJxAClDKUVzNGmlDarn7-5" style="edgeStyle=orthogonalEdgeStyle;rounded=0;orthogonalLoop=1;jettySize=auto;html=1;exitX=1;exitY=0.5;exitDx=0;exitDy=0;entryX=-0.003;entryY=0.645;entryDx=0;entryDy=0;entryPerimeter=0;" edge="1" parent="1" source="VWZkrmGNgomc8ggMUIlt-23" target="VWZkrmGNgomc8ggMUIlt-6">
          <mxGeometry relative="1" as="geometry" />
        </mxCell>
        <mxCell id="AJxAClDKUVzNGmlDarn7-6" value="" style="endArrow=none;html=1;rounded=0;" edge="1" parent="1">
          <mxGeometry width="50" height="50" relative="1" as="geometry">
            <mxPoint x="250" y="220" as="sourcePoint" />
            <mxPoint x="250" y="190" as="targetPoint" />
          </mxGeometry>
        </mxCell>
        <mxCell id="AJxAClDKUVzNGmlDarn7-8" value="" style="endArrow=none;html=1;rounded=0;" edge="1" parent="1">
          <mxGeometry width="50" height="50" relative="1" as="geometry">
            <mxPoint x="240" y="220" as="sourcePoint" />
            <mxPoint x="240" y="190" as="targetPoint" />
          </mxGeometry>
        </mxCell>
      </root>
    </mxGraphModel>
  </diagram>
</mxfile>
